<?xml version="1.0" encoding="utf-8"?>
<!-- Generator: Adobe Illustrator 16.0.0, SVG Export Plug-In . SVG Version: 6.00 Build 0)  -->
<!DOCTYPE svg PUBLIC "-//W3C//DTD SVG 1.1//EN" "http://www.w3.org/Graphics/SVG/1.1/DTD/svg11.dtd">
<svg version="1.1" id="Calque_1" xmlns="http://www.w3.org/2000/svg" xmlns:xlink="http://www.w3.org/1999/xlink" x="0px" y="0px"
	 width="500.128px" height="499.714px" viewBox="0 0 500.128 499.714" enable-background="new 0 0 500.128 499.714"
	 xml:space="preserve">
<g>
	<path fill="#010202" d="M416.789,321.13c1.315,0,2.584,0.137,3.869,0.196c-29.103-10.143-64.629-13.197-93.882-21.626
		c-8.994-2.607-23.52-8.62-26.406-16.418c-2.523-6.905,0-17.18-1.768-26.419c14.977-19.061,24.543-43.479,30.496-71.546
		c4.661-5.173,10.334-8.644,14.995-18.763c2.387-5.238,11.584-25.52,8.488-31.984c-1.602-3.298-5.077-4.965-7.607-6.715
		C361.856,48.295,302.525-5.268,225.925,0c-64.809,4.482-108.502,52.957-96.18,128.444c-5.602-0.167-8.53,3.75-9.965,6.721
		c-3.024,6.256,5.596,22.585,8.477,29.056c1.977,4.429,5.745,8.274,8.799,11.727c3.435,3.875,5.482,6.769,7.352,10.554
		c2.75,5.554,2.935,13.917,5.286,21.704c4.346,14.394,10.09,26.014,17.001,37.521c3.477,5.828,9.703,12.983,10.548,17.013
		c1.441,6.821,0.453,15.924-1.172,19.948c-5.905,14.512-40.616,20.691-60.986,25.805C57.723,322.945-3.181,326.833,0.129,399.88
		c0.565,12.382-0.346,9.346,5.28,17.382c3.465,4.929,15.644,9.662,22.87,13.501c57.171,30.169,126.456,45.164,209.962,45.152
		c35.312,0,68.123-2.744,98.513-8.072c-9.584-14.882-15.21-32.514-15.21-51.468C321.544,363.859,364.273,321.13,416.789,321.13z"/>
	<path fill="#010202" d="M416.789,333.036c-45.962,0-83.339,37.377-83.339,83.339s37.377,83.339,83.339,83.339
		c45.95,0,83.339-37.377,83.339-83.339S462.739,333.036,416.789,333.036z M399.151,457.443l-27.008-27.002l13.941-13.941
		l13.066,13.066l48.343-48.343l13.941,13.936L399.151,457.443z"/>
</g>
</svg>
