<?xml version="1.0" encoding="utf-8"?>
<!-- Generator: Adobe Illustrator 16.0.0, SVG Export Plug-In . SVG Version: 6.00 Build 0)  -->
<!DOCTYPE svg PUBLIC "-//W3C//DTD SVG 1.1//EN" "http://www.w3.org/Graphics/SVG/1.1/DTD/svg11.dtd">
<svg version="1.1" id="Calque_1" xmlns="http://www.w3.org/2000/svg" xmlns:xlink="http://www.w3.org/1999/xlink" x="0px" y="0px"
	 width="501.226px" height="509.569px" viewBox="0 0 501.226 509.569" enable-background="new 0 0 501.226 509.569"
	 xml:space="preserve">
<path fill="#010202" d="M0,447.056V131.557c0-3.572,0.595-7.739,2.381-11.31c1.786-3.572,3.571-6.548,6.548-9.525L116.079,7.739
	c2.381-2.381,5.953-4.762,8.93-5.953C128.58,0.596,132.151,0,135.724,0h206.562c35.122,0,63.1,27.979,63.1,63.1v33.931v10.12
	v149.415c-4.167-1.785-9.524-1.785-14.882-1.785c-4.762,0-9.524,0-14.286,0.595V96.436V62.505c0-18.454-14.883-33.336-33.336-33.336
	H145.248v48.218c0,34.526-28.573,63.1-63.1,63.1h-52.98V446.46c0,18.454,14.882,33.336,33.336,33.336h211.92
	c8.334,11.311,17.858,21.431,28.573,29.765H63.1C27.978,510.155,0,481.582,0,447.056z M501.226,397.647
	c0,61.313-49.408,110.722-110.723,110.722c-61.313,0-110.722-50.003-110.722-110.722s49.408-110.723,110.722-110.723
	C451.817,286.925,501.226,336.334,501.226,397.647z M449.436,381.575l-58.933-58.934l-58.933,58.934l20.835,20.834l22.62-22.62
	V466.7h29.765v-87.507l22.62,22.621L449.436,381.575z"/>
</svg>
