<?xml version="1.0" encoding="utf-8"?>
<!-- Generator: Adobe Illustrator 16.0.0, SVG Export Plug-In . SVG Version: 6.00 Build 0)  -->
<!DOCTYPE svg PUBLIC "-//W3C//DTD SVG 1.1//EN" "http://www.w3.org/Graphics/SVG/1.1/DTD/svg11.dtd">
<svg version="1.1" id="Calque_1" xmlns="http://www.w3.org/2000/svg" xmlns:xlink="http://www.w3.org/1999/xlink" x="0px" y="0px"
	 width="483.759px" height="548.671px" viewBox="0 0 483.759 548.671" enable-background="new 0 0 483.759 548.671"
	 xml:space="preserve">
<g transform="translate(0,-952.36216)">
	<path fill="#010202" d="M396.469,1326.453c-48.21,0.002-87.291,39.082-87.289,87.29c0,0.002,0,0.003,0,0.005
		c0.001,48.205,39.081,87.283,87.289,87.285c48.208-0.002,87.288-39.08,87.29-87.285c0.004-48.208-39.075-87.291-87.286-87.295
		C396.472,1326.453,396.471,1326.453,396.469,1326.453L396.469,1326.453z M429.561,1382.486l7.354,7.354l-55.152,55.158
		l-7.354-7.352l-18.395-18.385l7.354-7.353l18.395,18.383L429.561,1382.486L429.561,1382.486z"/>
	<path fill="#010202" d="M0,952.362c0,159.96,0,319.921,0,479.882h296.115l0.024-12.24H12.24V964.601h378.508v348.744l12.239,0.062
		v-361.02L0,952.362z"/>
	<path fill="#010202" d="M79.345,1181.916v12.24H323.63v-12.24H79.345z"/>
	<path fill="#010202" d="M125.03,1328.056v12.239h152.916v-12.239H125.03z"/>
	<path fill="#010202" d="M79.345,1230.625v12.24H323.63v-12.24H79.345z"/>
	<path fill="#010202" d="M79.345,1279.347v12.239H323.63v-12.239H79.345z"/>
	<path fill="#010202" d="M201.482,991.377c-28.25,0-51.219,23.256-51.219,51.697c0,12,4.123,23.049,10.973,31.843l-23.858,62.205
		l31.389-12.813l15.312,29.608l17.368-47.812l18.193,47.717l14.308-29.859l31.795,13.986l-24.862-61.905
		c7.379-8.963,11.821-20.46,11.821-32.967C252.701,1014.634,229.732,991.378,201.482,991.377L201.482,991.377z M201.482,1003.617
		c21.566,0,38.979,17.563,38.979,39.457c0,21.893-17.412,39.445-38.979,39.445c-21.567,0-38.979-17.552-38.979-39.445
		C162.502,1021.18,179.915,1003.617,201.482,1003.617z M170.75,1084.301c6.379,4.858,13.884,8.252,22.078,9.669l-10.722,29.501
		l-7.603-14.714l-15.575,6.359L170.75,1084.301z M231.293,1085.005l11.905,29.656l-15.168-6.682l-7.112,14.834l-10.985-28.819
		C217.809,1092.664,225.063,1089.533,231.293,1085.005L231.293,1085.005z"/>
</g>
</svg>
